<mxfile host="app.diagrams.net" agent="Mozilla/5.0 (Windows NT 10.0; Win64; x64) AppleWebKit/537.36 (KHTML, like Gecko) Chrome/135.0.0.0 Safari/537.36 Edg/135.0.0.0" version="26.2.15">
  <diagram name="第 1 页" id="aLrykQAlDfrHxWEHGAV_">
    <mxGraphModel dx="2614" dy="1297" grid="1" gridSize="10" guides="1" tooltips="1" connect="1" arrows="1" fold="1" page="1" pageScale="1" pageWidth="827" pageHeight="1169" math="0" shadow="0">
      <root>
        <mxCell id="0" />
        <mxCell id="1" parent="0" />
        <mxCell id="wcHQkT_TfS2VCTcPUrvC-2" value="决策响应层" style="whiteSpace=wrap;strokeWidth=2;fontSize=24;labelPosition=center;verticalLabelPosition=bottom;align=center;verticalAlign=top;fontColor=#FF0000;" vertex="1" parent="1">
          <mxGeometry x="2842" y="39" width="310" height="460" as="geometry" />
        </mxCell>
        <mxCell id="wcHQkT_TfS2VCTcPUrvC-3" value="核心分析层" style="whiteSpace=wrap;strokeWidth=2;fontSize=24;labelPosition=center;verticalLabelPosition=bottom;align=center;verticalAlign=top;fontColor=#FF0000;" vertex="1" parent="1">
          <mxGeometry x="1340" y="54" width="1470" height="423" as="geometry" />
        </mxCell>
        <mxCell id="wcHQkT_TfS2VCTcPUrvC-4" value="数据融合层" style="whiteSpace=wrap;strokeWidth=2;fontSize=24;fontColor=#FF0000;labelPosition=center;verticalLabelPosition=bottom;align=center;verticalAlign=top;" vertex="1" parent="1">
          <mxGeometry x="671" y="100" width="624" height="356" as="geometry" />
        </mxCell>
        <mxCell id="wcHQkT_TfS2VCTcPUrvC-5" value="数据采集层" style="whiteSpace=wrap;strokeWidth=2;fontSize=24;labelPosition=center;verticalLabelPosition=bottom;align=center;verticalAlign=top;fontColor=#FF0000;" vertex="1" parent="1">
          <mxGeometry x="53" y="24" width="568" height="484" as="geometry" />
        </mxCell>
        <mxCell id="wcHQkT_TfS2VCTcPUrvC-6" value="日志采集智能体 - Syslog/ELK" style="whiteSpace=wrap;strokeWidth=2;fontSize=20;" vertex="1" parent="1">
          <mxGeometry x="78" y="59" width="260" height="78" as="geometry" />
        </mxCell>
        <mxCell id="wcHQkT_TfS2VCTcPUrvC-7" value="数据融合层" style="whiteSpace=wrap;strokeWidth=2;fontSize=20;" vertex="1" parent="1">
          <mxGeometry x="456" y="247" width="140" height="54" as="geometry" />
        </mxCell>
        <mxCell id="wcHQkT_TfS2VCTcPUrvC-8" value="流量采集智能体 - NetFlow/PCAP" style="whiteSpace=wrap;strokeWidth=2;fontSize=20;" vertex="1" parent="1">
          <mxGeometry x="78" y="187" width="260" height="78" as="geometry" />
        </mxCell>
        <mxCell id="wcHQkT_TfS2VCTcPUrvC-9" value="行为采集智能体 - EDR/XDR" style="whiteSpace=wrap;strokeWidth=2;fontSize=20;" vertex="1" parent="1">
          <mxGeometry x="82" y="315" width="252" height="54" as="geometry" />
        </mxCell>
        <mxCell id="wcHQkT_TfS2VCTcPUrvC-10" value="威胁情报订阅 - STIX/TAXII" style="whiteSpace=wrap;strokeWidth=2;fontSize=20;" vertex="1" parent="1">
          <mxGeometry x="85" y="419" width="245" height="54" as="geometry" />
        </mxCell>
        <mxCell id="wcHQkT_TfS2VCTcPUrvC-11" value="时间同步引擎 - NTP/PTP" style="whiteSpace=wrap;strokeWidth=2;fontSize=20;" vertex="1" parent="1">
          <mxGeometry x="708" y="135" width="235" height="54" as="geometry" />
        </mxCell>
        <mxCell id="wcHQkT_TfS2VCTcPUrvC-12" value="本体映射引擎 - CyberSecurity Ontology" style="whiteSpace=wrap;strokeWidth=2;fontSize=20;" vertex="1" parent="1">
          <mxGeometry x="696" y="239" width="260" height="78" as="geometry" />
        </mxCell>
        <mxCell id="wcHQkT_TfS2VCTcPUrvC-13" value="流式处理引擎 - Flink/Spark" style="whiteSpace=wrap;strokeWidth=2;fontSize=20;" vertex="1" parent="1">
          <mxGeometry x="699" y="367" width="254" height="54" as="geometry" />
        </mxCell>
        <mxCell id="wcHQkT_TfS2VCTcPUrvC-61" style="edgeStyle=orthogonalEdgeStyle;rounded=0;orthogonalLoop=1;jettySize=auto;html=1;exitX=0.75;exitY=1;exitDx=0;exitDy=0;entryX=0;entryY=0.5;entryDx=0;entryDy=0;curved=1;" edge="1" parent="1" source="wcHQkT_TfS2VCTcPUrvC-14" target="wcHQkT_TfS2VCTcPUrvC-19">
          <mxGeometry relative="1" as="geometry" />
        </mxCell>
        <mxCell id="wcHQkT_TfS2VCTcPUrvC-63" value="" style="edgeStyle=orthogonalEdgeStyle;rounded=0;orthogonalLoop=1;jettySize=auto;html=1;" edge="1" parent="1" source="wcHQkT_TfS2VCTcPUrvC-14" target="wcHQkT_TfS2VCTcPUrvC-15">
          <mxGeometry relative="1" as="geometry" />
        </mxCell>
        <mxCell id="wcHQkT_TfS2VCTcPUrvC-14" value="标准化事件流" style="whiteSpace=wrap;strokeWidth=2;fontSize=20;" vertex="1" parent="1">
          <mxGeometry x="1114" y="219" width="156" height="54" as="geometry" />
        </mxCell>
        <mxCell id="wcHQkT_TfS2VCTcPUrvC-15" value="多模态TTP提取" style="whiteSpace=wrap;strokeWidth=2;fontSize=20;" vertex="1" parent="1">
          <mxGeometry x="1363" y="219" width="168" height="54" as="geometry" />
        </mxCell>
        <mxCell id="wcHQkT_TfS2VCTcPUrvC-62" style="edgeStyle=orthogonalEdgeStyle;rounded=0;orthogonalLoop=1;jettySize=auto;html=1;exitX=1;exitY=0.5;exitDx=0;exitDy=0;curved=1;" edge="1" parent="1" source="wcHQkT_TfS2VCTcPUrvC-16" target="wcHQkT_TfS2VCTcPUrvC-18">
          <mxGeometry relative="1" as="geometry" />
        </mxCell>
        <mxCell id="wcHQkT_TfS2VCTcPUrvC-16" value="大语言模型处理" style="whiteSpace=wrap;strokeWidth=2;fontSize=20;" vertex="1" parent="1">
          <mxGeometry x="1654" y="133" width="172" height="54" as="geometry" />
        </mxCell>
        <mxCell id="wcHQkT_TfS2VCTcPUrvC-17" value="机器学习模型处理" style="whiteSpace=wrap;strokeWidth=2;fontSize=20;" vertex="1" parent="1">
          <mxGeometry x="1654" y="280" width="188" height="54" as="geometry" />
        </mxCell>
        <mxCell id="wcHQkT_TfS2VCTcPUrvC-18" value="ATT&amp;CK框架映射" style="whiteSpace=wrap;strokeWidth=2;fontSize=20;" vertex="1" parent="1">
          <mxGeometry x="1950" y="120" width="181" height="54" as="geometry" />
        </mxCell>
        <mxCell id="wcHQkT_TfS2VCTcPUrvC-19" value="攻击图谱构建 - Neo4j/GraphDB" style="whiteSpace=wrap;strokeWidth=2;fontSize=20;" vertex="1" parent="1">
          <mxGeometry x="1930" y="369" width="260" height="78" as="geometry" />
        </mxCell>
        <mxCell id="wcHQkT_TfS2VCTcPUrvC-20" value="行为预测引擎 - LSTM/Transformer" style="whiteSpace=wrap;strokeWidth=2;fontSize=20;" vertex="1" parent="1">
          <mxGeometry x="2221" y="235" width="260" height="78" as="geometry" />
        </mxCell>
        <mxCell id="wcHQkT_TfS2VCTcPUrvC-21" value="溯源分析引擎 - PageRank/Community Detection" style="whiteSpace=wrap;strokeWidth=2;fontSize=20;" vertex="1" parent="1">
          <mxGeometry x="2520" y="223" width="260" height="102" as="geometry" />
        </mxCell>
        <mxCell id="wcHQkT_TfS2VCTcPUrvC-22" value="自动阻断模块 - FW/WAF规则更新" style="whiteSpace=wrap;strokeWidth=2;fontSize=20;" vertex="1" parent="1">
          <mxGeometry x="2867" y="74" width="260" height="78" as="geometry" />
        </mxCell>
        <mxCell id="wcHQkT_TfS2VCTcPUrvC-23" value="预警通知模块 - SIEM集成" style="whiteSpace=wrap;strokeWidth=2;fontSize=20;" vertex="1" parent="1">
          <mxGeometry x="2880" y="202" width="236" height="54" as="geometry" />
        </mxCell>
        <mxCell id="wcHQkT_TfS2VCTcPUrvC-24" value="策略调整模块 - SOAR集成" style="whiteSpace=wrap;strokeWidth=2;fontSize=20;" vertex="1" parent="1">
          <mxGeometry x="2877" y="306" width="241" height="54" as="geometry" />
        </mxCell>
        <mxCell id="wcHQkT_TfS2VCTcPUrvC-25" value="取证存档 - 区块链存证" style="whiteSpace=wrap;strokeWidth=2;fontSize=20;" vertex="1" parent="1">
          <mxGeometry x="2888" y="410" width="220" height="54" as="geometry" />
        </mxCell>
        <mxCell id="wcHQkT_TfS2VCTcPUrvC-30" value="系统日志" style="curved=1;startArrow=none;endArrow=block;exitX=1;exitY=0.5;entryX=0.36;entryY=0;rounded=0;fontSize=20;" edge="1" parent="1" source="wcHQkT_TfS2VCTcPUrvC-6" target="wcHQkT_TfS2VCTcPUrvC-7">
          <mxGeometry relative="1" as="geometry">
            <Array as="points">
              <mxPoint x="397" y="98" />
            </Array>
          </mxGeometry>
        </mxCell>
        <mxCell id="wcHQkT_TfS2VCTcPUrvC-31" value="网络流量" style="curved=1;startArrow=none;endArrow=block;exitX=1;exitY=0.5;entryX=0;entryY=0.02;rounded=0;fontSize=20;" edge="1" parent="1" source="wcHQkT_TfS2VCTcPUrvC-8" target="wcHQkT_TfS2VCTcPUrvC-7">
          <mxGeometry relative="1" as="geometry">
            <Array as="points">
              <mxPoint x="397" y="226" />
            </Array>
          </mxGeometry>
        </mxCell>
        <mxCell id="wcHQkT_TfS2VCTcPUrvC-32" value="应用行为" style="curved=1;startArrow=none;endArrow=block;exitX=1;exitY=0.5;entryX=0.13;entryY=1;rounded=0;fontSize=20;" edge="1" parent="1" source="wcHQkT_TfS2VCTcPUrvC-9" target="wcHQkT_TfS2VCTcPUrvC-7">
          <mxGeometry relative="1" as="geometry">
            <Array as="points">
              <mxPoint x="397" y="342" />
            </Array>
          </mxGeometry>
        </mxCell>
        <mxCell id="wcHQkT_TfS2VCTcPUrvC-33" value="IOC数据" style="curved=1;startArrow=none;endArrow=block;exitX=1;exitY=0.5;entryX=0.36;entryY=1;rounded=0;fontSize=20;" edge="1" parent="1" source="wcHQkT_TfS2VCTcPUrvC-10" target="wcHQkT_TfS2VCTcPUrvC-7">
          <mxGeometry relative="1" as="geometry">
            <Array as="points">
              <mxPoint x="397" y="446" />
            </Array>
          </mxGeometry>
        </mxCell>
        <mxCell id="wcHQkT_TfS2VCTcPUrvC-34" value="" style="curved=1;startArrow=none;endArrow=block;exitX=0.66;exitY=0;entryX=0;entryY=0.5;rounded=0;fontSize=20;" edge="1" parent="1" source="wcHQkT_TfS2VCTcPUrvC-7" target="wcHQkT_TfS2VCTcPUrvC-11">
          <mxGeometry relative="1" as="geometry">
            <Array as="points">
              <mxPoint x="621" y="162" />
            </Array>
          </mxGeometry>
        </mxCell>
        <mxCell id="wcHQkT_TfS2VCTcPUrvC-35" value="" style="curved=1;startArrow=none;endArrow=block;exitX=1;exitY=0.55;entryX=0;entryY=0.5;rounded=0;fontSize=20;" edge="1" parent="1" source="wcHQkT_TfS2VCTcPUrvC-7" target="wcHQkT_TfS2VCTcPUrvC-12">
          <mxGeometry relative="1" as="geometry">
            <Array as="points">
              <mxPoint x="621" y="278" />
            </Array>
          </mxGeometry>
        </mxCell>
        <mxCell id="wcHQkT_TfS2VCTcPUrvC-36" value="" style="curved=1;startArrow=none;endArrow=block;exitX=0.65;exitY=1;entryX=0;entryY=0.5;rounded=0;fontSize=20;" edge="1" parent="1" source="wcHQkT_TfS2VCTcPUrvC-7" target="wcHQkT_TfS2VCTcPUrvC-13">
          <mxGeometry relative="1" as="geometry">
            <Array as="points">
              <mxPoint x="621" y="394" />
            </Array>
          </mxGeometry>
        </mxCell>
        <mxCell id="wcHQkT_TfS2VCTcPUrvC-37" value="" style="curved=1;startArrow=none;endArrow=block;exitX=1;exitY=0.5;entryX=0.18;entryY=0;rounded=0;fontSize=20;" edge="1" parent="1" source="wcHQkT_TfS2VCTcPUrvC-11" target="wcHQkT_TfS2VCTcPUrvC-14">
          <mxGeometry relative="1" as="geometry">
            <Array as="points">
              <mxPoint x="1035" y="162" />
            </Array>
          </mxGeometry>
        </mxCell>
        <mxCell id="wcHQkT_TfS2VCTcPUrvC-38" value="" style="curved=1;startArrow=none;endArrow=block;exitX=1;exitY=0.5;entryX=0;entryY=0.79;rounded=0;fontSize=20;" edge="1" parent="1" source="wcHQkT_TfS2VCTcPUrvC-12" target="wcHQkT_TfS2VCTcPUrvC-14">
          <mxGeometry relative="1" as="geometry">
            <Array as="points">
              <mxPoint x="1035" y="278" />
            </Array>
          </mxGeometry>
        </mxCell>
        <mxCell id="wcHQkT_TfS2VCTcPUrvC-39" value="" style="curved=1;startArrow=none;endArrow=block;exitX=1;exitY=0.14;entryX=0.27;entryY=1;rounded=0;fontSize=20;" edge="1" parent="1" source="wcHQkT_TfS2VCTcPUrvC-13" target="wcHQkT_TfS2VCTcPUrvC-14">
          <mxGeometry relative="1" as="geometry">
            <Array as="points">
              <mxPoint x="1035" y="362" />
            </Array>
          </mxGeometry>
        </mxCell>
        <mxCell id="wcHQkT_TfS2VCTcPUrvC-41" value="文本数据" style="curved=1;startArrow=none;endArrow=block;exitX=0.97;exitY=0;entryX=0;entryY=0.5;rounded=0;fontSize=20;" edge="1" parent="1" source="wcHQkT_TfS2VCTcPUrvC-15" target="wcHQkT_TfS2VCTcPUrvC-16">
          <mxGeometry relative="1" as="geometry">
            <Array as="points">
              <mxPoint x="1572" y="163" />
            </Array>
          </mxGeometry>
        </mxCell>
        <mxCell id="wcHQkT_TfS2VCTcPUrvC-42" value="非文本数据" style="curved=1;startArrow=none;endArrow=block;exitX=0.97;exitY=1;entryX=0;entryY=0.5;rounded=0;fontSize=20;" edge="1" parent="1" source="wcHQkT_TfS2VCTcPUrvC-15" target="wcHQkT_TfS2VCTcPUrvC-17">
          <mxGeometry relative="1" as="geometry">
            <Array as="points">
              <mxPoint x="1572" y="330" />
            </Array>
          </mxGeometry>
        </mxCell>
        <mxCell id="wcHQkT_TfS2VCTcPUrvC-44" value="" style="curved=1;startArrow=none;endArrow=block;exitX=1;exitY=0.5;entryX=0.17;entryY=1;rounded=0;fontSize=20;" edge="1" parent="1" source="wcHQkT_TfS2VCTcPUrvC-17" target="wcHQkT_TfS2VCTcPUrvC-18">
          <mxGeometry relative="1" as="geometry">
            <Array as="points">
              <mxPoint x="1852" y="267" />
            </Array>
          </mxGeometry>
        </mxCell>
        <mxCell id="wcHQkT_TfS2VCTcPUrvC-46" value="" style="curved=1;startArrow=none;endArrow=block;exitX=1;exitY=0.5;entryX=0.11;entryY=0;rounded=0;fontSize=20;" edge="1" parent="1" source="wcHQkT_TfS2VCTcPUrvC-18" target="wcHQkT_TfS2VCTcPUrvC-20">
          <mxGeometry relative="1" as="geometry">
            <Array as="points">
              <mxPoint x="2220" y="190" />
            </Array>
          </mxGeometry>
        </mxCell>
        <mxCell id="wcHQkT_TfS2VCTcPUrvC-47" value="" style="curved=1;startArrow=none;endArrow=block;exitX=1;exitY=0.5;entryX=0.31;entryY=1;rounded=0;fontSize=20;" edge="1" parent="1" source="wcHQkT_TfS2VCTcPUrvC-19" target="wcHQkT_TfS2VCTcPUrvC-20">
          <mxGeometry relative="1" as="geometry">
            <Array as="points">
              <mxPoint x="2250" y="390" />
            </Array>
          </mxGeometry>
        </mxCell>
        <mxCell id="wcHQkT_TfS2VCTcPUrvC-48" value="" style="curved=1;startArrow=none;endArrow=block;exitX=1;exitY=0.5;entryX=0;entryY=0.5;rounded=0;fontSize=20;" edge="1" parent="1" source="wcHQkT_TfS2VCTcPUrvC-20" target="wcHQkT_TfS2VCTcPUrvC-21">
          <mxGeometry relative="1" as="geometry">
            <Array as="points" />
          </mxGeometry>
        </mxCell>
        <mxCell id="wcHQkT_TfS2VCTcPUrvC-49" value="" style="curved=1;startArrow=none;endArrow=block;exitX=0.67;exitY=0;entryX=0;entryY=0.5;rounded=0;fontSize=20;" edge="1" parent="1" source="wcHQkT_TfS2VCTcPUrvC-21" target="wcHQkT_TfS2VCTcPUrvC-22">
          <mxGeometry relative="1" as="geometry">
            <Array as="points">
              <mxPoint x="2800" y="130" />
            </Array>
          </mxGeometry>
        </mxCell>
        <mxCell id="wcHQkT_TfS2VCTcPUrvC-50" value="" style="curved=1;startArrow=none;endArrow=block;exitX=0.98;exitY=0;entryX=0;entryY=0.5;rounded=0;fontSize=20;" edge="1" parent="1" source="wcHQkT_TfS2VCTcPUrvC-21" target="wcHQkT_TfS2VCTcPUrvC-23">
          <mxGeometry relative="1" as="geometry">
            <Array as="points">
              <mxPoint x="2920" y="250" />
            </Array>
          </mxGeometry>
        </mxCell>
        <mxCell id="wcHQkT_TfS2VCTcPUrvC-51" value="" style="curved=1;startArrow=none;endArrow=block;exitX=1;exitY=0.83;entryX=0;entryY=0.5;rounded=0;fontSize=20;" edge="1" parent="1" source="wcHQkT_TfS2VCTcPUrvC-21" target="wcHQkT_TfS2VCTcPUrvC-24">
          <mxGeometry relative="1" as="geometry">
            <Array as="points">
              <mxPoint x="2900" y="350" />
            </Array>
          </mxGeometry>
        </mxCell>
        <mxCell id="wcHQkT_TfS2VCTcPUrvC-52" value="" style="curved=1;startArrow=none;endArrow=block;exitX=0.71;exitY=1;entryX=0;entryY=0.5;rounded=0;fontSize=20;" edge="1" parent="1" source="wcHQkT_TfS2VCTcPUrvC-21" target="wcHQkT_TfS2VCTcPUrvC-25">
          <mxGeometry relative="1" as="geometry">
            <Array as="points">
              <mxPoint x="2860" y="420" />
            </Array>
          </mxGeometry>
        </mxCell>
        <mxCell id="wcHQkT_TfS2VCTcPUrvC-57" value="5分钟滑动窗口" style="curved=1;dashed=1;dashPattern=2 3;startArrow=none;endArrow=block;exitX=1;exitY=0.68;entryX=0.34;entryY=1;rounded=0;fontSize=20;" edge="1" parent="1" source="wcHQkT_TfS2VCTcPUrvC-13" target="wcHQkT_TfS2VCTcPUrvC-14">
          <mxGeometry relative="1" as="geometry">
            <Array as="points">
              <mxPoint x="1035" y="410" />
            </Array>
          </mxGeometry>
        </mxCell>
        <mxCell id="wcHQkT_TfS2VCTcPUrvC-58" value="映射14种战术193种技术" style="curved=1;startArrow=none;endArrow=block;exitX=0.65;exitY=1;entryX=0.5;entryY=0;rounded=0;fontSize=20;entryDx=0;entryDy=0;" edge="1" parent="1" source="wcHQkT_TfS2VCTcPUrvC-18" target="wcHQkT_TfS2VCTcPUrvC-19">
          <mxGeometry relative="1" as="geometry">
            <Array as="points">
              <mxPoint x="2050" y="260" />
            </Array>
          </mxGeometry>
        </mxCell>
        <mxCell id="wcHQkT_TfS2VCTcPUrvC-64" style="edgeStyle=orthogonalEdgeStyle;rounded=0;orthogonalLoop=1;jettySize=auto;html=1;exitX=0.5;exitY=1;exitDx=0;exitDy=0;entryX=0.605;entryY=0.908;entryDx=0;entryDy=0;entryPerimeter=0;" edge="1" parent="1" source="wcHQkT_TfS2VCTcPUrvC-16" target="wcHQkT_TfS2VCTcPUrvC-16">
          <mxGeometry relative="1" as="geometry" />
        </mxCell>
      </root>
    </mxGraphModel>
  </diagram>
</mxfile>
